<?xml version="1.0" encoding="UTF-8"?>
<svg width="60px" height="60px" viewBox="0 0 60 60" version="1.1" xmlns="http://www.w3.org/2000/svg" xmlns:xlink="http://www.w3.org/1999/xlink">
    <!-- Generator: Sketch 54.1 (76490) - https://sketchapp.com -->
    <title>icon benefits/bonus</title>
    <desc>Created with Sketch.</desc>
    <defs>
        <rect id="path-1" x="0" y="0" width="60" height="60"></rect>
    </defs>
    <g id="icon-benefits/bonus" stroke="none" stroke-width="1" fill="none" fill-rule="evenodd">
        <g id="School-36">
            <mask id="mask-2" fill="white">
                <use xlink:href="#path-1"></use>
            </mask>
            <g id="Mask" fill-rule="nonzero"></g>
            <g id="School-02" mask="url(#mask-2)">
                <g transform="translate(11.000000, 6.000000)">
                    <polygon id="Shape" fill="#FFFFFF" fill-rule="nonzero" points="27.201087 45.6141304 17.1576087 46.8695652 11.298913 46.8695652 11.298913 40.5923913 27.201087 40.5923913"></polygon>
                    <g id="Group" stroke-width="1" fill="none" fill-rule="evenodd">
                        <path d="M19.25,33.0597826 L19.25,33.0597826 C12.763587,33.0597826 7.5326087,27.8288043 7.5326087,21.3423913 L7.5326087,1.25543478 L30.9673913,1.25543478 L30.9673913,21.3423913 C30.9673913,27.8288043 25.736413,33.0597826 19.25,33.0597826 Z" id="Shape" fill="#FFF0B3" fill-rule="nonzero"></path>
                        <g opacity="0.2" transform="translate(19.250000, 1.255435)" fill="#FCCA3D" fill-rule="nonzero" id="Shape">
                            <g>
                                <path d="M0,31.8043478 C6.48641304,31.8043478 11.7173913,26.5733696 11.7173913,20.0869565 L11.7173913,0 L0,0 L0,31.8043478 Z"></path>
                            </g>
                        </g>
                        <path d="M10.0434783,16.3206522 C9.33206522,16.3206522 8.78804348,15.7766304 8.78804348,15.0652174 L8.78804348,7.95108696 C8.78804348,7.23967391 9.33206522,6.69565217 10.0434783,6.69565217 C10.7548913,6.69565217 11.298913,7.23967391 11.298913,7.95108696 L11.298913,15.0652174 C11.298913,15.7766304 10.7548913,16.3206522 10.0434783,16.3206522 Z" id="Shape" fill="#FFFFFF" fill-rule="nonzero"></path>
                        <path d="M10.0434783,22.5978261 C9.95978261,22.5978261 9.87608696,22.5978261 9.7923913,22.5559783 C9.70869565,22.5559783 9.625,22.5141304 9.54130435,22.4722826 C9.4576087,22.4304348 9.41576087,22.388587 9.33206522,22.3467391 C9.24836957,22.3048913 9.20652174,22.2630435 9.16467391,22.1793478 C8.91358696,22.0119565 8.78804348,21.6771739 8.78804348,21.3423913 C8.78804348,21.2586957 8.78804348,21.175 8.8298913,21.0913043 C8.8298913,21.0076087 8.87173913,20.923913 8.91358696,20.8402174 C8.95543478,20.7565217 8.99728261,20.6728261 9.03913043,20.6309783 C9.08097826,20.5472826 9.12282609,20.5054348 9.20652174,20.4217391 C9.66684783,19.961413 10.5038043,19.961413 10.9641304,20.4217391 C11.0059783,20.463587 11.0896739,20.5472826 11.1315217,20.6309783 C11.1733696,20.7146739 11.2152174,20.7565217 11.2570652,20.8402174 C11.298913,20.923913 11.298913,21.0076087 11.3407609,21.0913043 C11.3407609,21.175 11.3826087,21.2586957 11.3826087,21.3423913 C11.3826087,21.426087 11.3826087,21.5097826 11.3407609,21.5934783 C11.3407609,21.6771739 11.298913,21.7608696 11.2570652,21.8445652 C11.2152174,21.9282609 11.1733696,22.0119565 11.1315217,22.0538043 C11.0896739,22.1375 11.0478261,22.1793478 10.9641304,22.2211957 C10.9222826,22.2630435 10.838587,22.3467391 10.7967391,22.388587 C10.7130435,22.4304348 10.6711957,22.4722826 10.5875,22.5141304 C10.5038043,22.5559783 10.4201087,22.5559783 10.336413,22.5978261 C10.2108696,22.5978261 10.1271739,22.5978261 10.0434783,22.5978261 Z" id="Shape" fill="#FFFFFF" fill-rule="nonzero"></path>
                        <path d="M19.25,31.8043478 C18.538587,31.8043478 17.9945652,31.2603261 17.9945652,30.548913 C17.9945652,29.8375 18.538587,29.2934783 19.25,29.2934783 C23.6440217,29.2934783 27.201087,25.736413 27.201087,21.3423913 L27.201087,12.1358696 C27.201087,11.4244565 27.7451087,10.8804348 28.4565217,10.8804348 C29.1679348,10.8804348 29.7119565,11.4244565 29.7119565,12.1358696 L29.7119565,21.3423913 C29.7119565,27.1173913 25.025,31.8043478 19.25,31.8043478 Z" id="Shape" fill="#FCCA3D" fill-rule="nonzero"></path>
                        <path d="M32.1809783,22.2630435 C35.7380435,21.6771739 38.5,18.5804348 38.5,14.8559783 L38.5,5.44021739 C38.5,4.72880435 37.9559783,4.18478261 37.2445652,4.18478261 L32.2228261,4.18478261 L32.2228261,1.25543478 C32.2228261,0.544021739 31.6788043,0 30.9673913,0 L7.5326087,0 C6.82119565,0 6.27717391,0.544021739 6.27717391,1.25543478 L6.27717391,19.4173913 C4.10108696,18.8733696 2.51086957,16.9065217 2.51086957,14.5630435 L2.51086957,6.69565217 L3.76630435,6.69565217 C4.47771739,6.69565217 5.02173913,6.15163043 5.02173913,5.44021739 C5.02173913,4.72880435 4.47771739,4.18478261 3.76630435,4.18478261 L1.25543478,4.18478261 C0.544021739,4.18478261 0,4.72880435 0,5.44021739 L0,14.5630435 C0,18.2875 2.7201087,21.3842391 6.27717391,21.9701087 C6.5701087,28.4146739 11.6336957,33.6456522 17.9945652,34.2733696 L17.9945652,39.3369565 L11.298913,39.3369565 C10.5875,39.3369565 10.0434783,39.8809783 10.0434783,40.5923913 L10.0434783,44.3586957 L2.92934783,44.3586957 C2.21793478,44.3586957 1.67391304,44.9027174 1.67391304,45.6141304 C1.67391304,46.3255435 2.21793478,46.8695652 2.92934783,46.8695652 L11.298913,46.8695652 C12.0103261,46.8695652 12.5543478,46.3255435 12.5543478,45.6141304 L12.5543478,41.8478261 L25.9456522,41.8478261 L25.9456522,44.3586957 L17.1576087,44.3586957 C16.4461957,44.3586957 15.9021739,44.9027174 15.9021739,45.6141304 C15.9021739,46.3255435 16.4461957,46.8695652 17.1576087,46.8695652 L35.5706522,46.8695652 C36.2820652,46.8695652 36.826087,46.3255435 36.826087,45.6141304 C36.826087,44.9027174 36.2820652,44.3586957 35.5706522,44.3586957 L28.4565217,44.3586957 L28.4565217,40.5923913 C28.4565217,39.8809783 27.9125,39.3369565 27.201087,39.3369565 L20.5054348,39.3369565 L20.5054348,34.2733696 C26.7826087,33.6456522 31.7206522,28.5820652 32.1809783,22.2630435 Z M35.9891304,6.69565217 L35.9891304,14.8559783 C35.9891304,17.1994565 34.398913,19.1663043 32.2228261,19.7103261 L32.2228261,6.69565217 L35.9891304,6.69565217 Z M8.78804348,21.3423913 L8.78804348,2.51086957 L29.7119565,2.51086957 L29.7119565,21.3423913 C29.7119565,27.1173913 25.025,31.8043478 19.25,31.8043478 C13.475,31.8043478 8.78804348,27.1173913 8.78804348,21.3423913 Z" id="Shape" fill="#7B8695" fill-rule="nonzero"></path>
                    </g>
                </g>
            </g>
        </g>
    </g>
</svg>