
<svg width="20px" height="20px" viewBox="0 0 20 20" version="1.1" xmlns="http://www.w3.org/2000/svg" xmlns:xlink="http://www.w3.org/1999/xlink">
    <g id="ZooTown" stroke="none" stroke-width="1" fill="none" fill-rule="evenodd" opacity="0.193973214">
        <g id="Zoo-Town-Students-" transform="translate(-772.000000, -5069.000000)" fill="#000000">
            <g id="Group-11" transform="translate(175.000000, 4837.000000)">
                <g id="Group-10" transform="translate(487.000000, 232.000000)">
                    <path d="M127.095,8.175 L125.413,8.175 C125.535,8.65 125.608,9.148 125.608,9.662 C125.608,12.946 122.946,15.608 119.662,15.608 C116.378,15.608 113.716,12.946 113.716,9.662 C113.716,9.148 113.789,8.65 113.911,8.175 L112.229,8.175 L112.229,16.351 C112.229,16.761 112.562,17.094 112.973,17.094 L126.351,17.094 C126.762,17.094 127.095,16.761 127.095,16.351 L127.095,8.175 L127.095,8.175 Z M127.095,2.972 C127.095,2.562 126.762,2.229 126.351,2.229 L124.122,2.229 C123.711,2.229 123.379,2.562 123.379,2.972 L123.379,5.202 C123.379,5.613 123.711,5.945 124.122,5.945 L126.351,5.945 C126.762,5.945 127.095,5.613 127.095,5.202 L127.095,2.972 L127.095,2.972 Z M119.662,5.945 C117.609,5.945 115.946,7.609 115.946,9.662 C115.946,11.714 117.609,13.378 119.662,13.378 C121.714,13.378 123.379,11.714 123.379,9.662 C123.379,7.609 121.714,5.945 119.662,5.945 L119.662,5.945 Z M127.095,19.324 L112.229,19.324 C110.998,19.324 110,18.326 110,17.094 L110,2.229 C110,0.998 110.998,0 112.229,0 L127.095,0 C128.326,0 129.324,0.998 129.324,2.229 L129.324,17.094 C129.324,18.326 128.326,19.324 127.095,19.324 L127.095,19.324 Z" id="Instagram"></path>
                </g>
            </g>
        </g>
    </g>
</svg>