
<svg width="38px" height="49px" viewBox="0 0 38 49" version="1.1" xmlns="http://www.w3.org/2000/svg" xmlns:xlink="http://www.w3.org/1999/xlink">
    <defs>
        <rect id="path-1" x="0" y="0" width="60" height="60"></rect>
    </defs>
    <g id="Symbols" stroke="none" stroke-width="1" fill="none" fill-rule="evenodd">
        <g id="icon-benefits/Tied-down-and-need-a-hand-with-hiring?" transform="translate(-11.000000, -4.000000)">
            <g id="School-36">
                <mask id="mask-2" fill="white">
                    <use xlink:href="#path-1"></use>
                </mask>
                <g id="Mask" fill-rule="nonzero"></g>
                <g id="School-61" mask="url(#mask-2)">
                    <g transform="translate(11.000000, 4.000000)">
                        <path d="M29.6956522,49 L12.3043478,49 C11.5652174,49 11,48.35 11,47.5 C11,46.65 11.5652174,46 12.3043478,46 L29.6956522,46 C30.4347826,46 31,46.65 31,47.5 C31,48.35 30.4347826,49 29.6956522,49 Z" id="Shape" fill="#444B54" fill-rule="nonzero"></path>
                        <path d="M29,10.4257113 L12.4085667,38.9272919 C11.029654,41.317176 9.1169687,43.3530032 6.80395387,44.857745 L2,48 L2.35584843,42.2908325 C2.53377265,39.5468915 3.33443163,36.8914647 4.71334432,34.5015806 L21.3047776,6" id="Shape" fill="#FFFFFF" fill-rule="nonzero"></path>
                        <path d="M17.3800793,13 C17.148662,13 16.9172448,12.9555106 16.6858275,12.8220423 C16.0378592,12.4661268 15.806442,11.6208276 16.1767096,10.9979756 L19.416551,5.65924377 C19.7868186,5.03639173 20.6662042,4.81394457 21.3141725,5.16986003 C21.9621408,5.52577548 22.193558,6.37107468 21.8232904,6.99392672 L18.583449,12.3326585 C18.3057483,12.7330634 17.8429138,13 17.3800793,13 Z" id="Shape" fill="#FFFFFF" fill-rule="nonzero"></path>
                        <path d="M25.3800793,17 C25.148662,17 24.9172448,16.9555106 24.6858275,16.8220423 C24.0378592,16.4661268 23.806442,15.6208276 24.1767096,14.9979756 L27.416551,9.65924377 C27.7868186,9.03639173 28.6662042,8.81394457 29.3141725,9.16986003 C29.9621408,9.52577548 30.193558,10.3710747 29.8232904,10.9939267 L26.583449,16.3326585 C26.3057483,16.7330634 25.8429138,17 25.3800793,17 Z" id="Shape" fill="#FFFFFF" fill-rule="nonzero"></path>
                        <path d="M12.3482019,35 C12.12213,35 11.896058,34.9554492 11.6699861,34.8217967 C11.0369847,34.4653901 10.8109128,33.6189243 11.1726279,32.9952128 L22.4762241,13.6601535 C22.8379392,13.036442 23.6970125,12.8136878 24.3300139,13.1700944 C24.9630153,13.5265011 25.1890872,14.3729668 24.8273721,14.9966784 L13.5237759,34.3317376 C13.2524896,34.7772459 12.8003457,35 12.3482019,35 Z" id="Shape" fill="#FCCA3D" fill-rule="nonzero"></path>
                        <path d="M1.30921634,49 C1.09179822,49 0.874380101,48.9561215 0.656961983,48.824486 C0.222125745,48.561215 -0.0387759975,48.12243 0.00470762624,47.595888 L0.352576616,41.9355615 C0.526511111,39.0395805 1.39618359,36.1435995 2.83114317,33.642525 L16.0066812,10.650191 C16.3545502,10.035892 17.180739,9.8164995 17.7895097,10.1675275 C18.3982805,10.5185555 18.6156986,11.352247 18.2678296,11.966546 L5.09229161,34.95888 C3.83126652,37.1089265 3.13552854,39.610001 2.96159404,42.1110755 L2.78765955,45.138692 L5.30970972,43.471309 C7.39692366,42.1110755 9.13626861,40.2243 10.3972937,38.030375 L23.5728317,15.038041 C23.9207007,14.423742 24.7468895,14.2043495 25.3556603,14.5553775 C25.964431,14.9064055 26.1818491,15.740097 25.8339801,16.354396 L12.6149585,39.34673 C11.1799989,41.891683 9.13626861,44.0417295 6.74466931,45.665234 L2.04843794,48.7806075 C1.83101982,48.912243 1.57011808,49 1.30921634,49 Z" id="Shape" fill="#444B54" fill-rule="nonzero"></path>
                        <path d="M30.0686135,9 C29.8461451,9 29.6236767,8.95702172 29.4012082,8.82808688 C28.7782966,8.48426064 28.5558282,7.66767332 28.9117777,7.06597741 C29.3122209,6.37832493 29.4457019,5.56173761 29.2232335,4.78812857 C29.0007651,4.01451954 28.5113345,3.36984534 27.7549418,2.98304082 C27.0430429,2.5962363 26.1976628,2.46730146 25.3967765,2.68219286 C24.5958901,2.89708426 23.9284848,3.36984534 23.483548,4.1004761 C23.1275985,4.70217201 22.2822184,4.91706341 21.6593068,4.57323717 C21.0363952,4.22941094 20.8139268,3.41282362 21.1698763,2.8111277 C21.9262689,1.5217793 23.1720922,0.576257148 24.6848775,0.189452629 C26.1976628,-0.19735189 27.7549418,0.0175395094 29.0897524,0.748170267 C30.424563,1.47880102 31.4034241,2.68219286 31.8038673,4.14345438 C32.2043105,5.60471589 31.9818421,7.10895569 31.2254494,8.39830408 C30.9584873,8.7851086 30.5135504,9 30.0686135,9 Z" id="Shape" fill="#F5A623" fill-rule="nonzero"></path>
                        <g id="Group" stroke-width="1" fill="none" fill-rule="evenodd" transform="translate(19.000000, 0.000000)">
                            <path d="M10.7033333,8.38275862 C11.9166667,6.23103448 11.18,3.49655172 9.1,2.24137931 L9.1,2.24137931 C7.02,0.986206897 4.37666667,1.74827586 3.16333333,3.9 L1.56,6.8137931 L9.05666667,11.2965517 L10.7033333,8.38275862 Z" id="Shape" fill="#FED008" fill-rule="nonzero"></path>
                            <path d="M9.05666667,12.6413793 C8.84,12.6413793 8.62333333,12.5965517 8.40666667,12.462069 L0.91,7.97931034 C0.303333333,7.62068966 0.0866666667,6.76896552 0.433333333,6.14137931 L2.03666667,3.22758621 C2.77333333,1.88275862 3.98666667,0.896551724 5.46,0.493103448 C6.93333333,0.0896551724 8.45,0.313793103 9.75,1.07586207 C11.05,1.83793103 12.0033333,3.09310345 12.3933333,4.61724138 C12.7833333,6.14137931 12.5666667,7.71034483 11.83,9.05517241 L10.2266667,11.9689655 C10.0533333,12.2827586 9.75,12.5068966 9.44666667,12.5965517 C9.27333333,12.6413793 9.18666667,12.6413793 9.05666667,12.6413793 Z M3.33666667,6.32068966 L8.58,9.45862069 L9.53333333,7.71034483 L9.53333333,7.71034483 C9.92333333,6.99310345 10.0533333,6.14137931 9.83666667,5.33448276 C9.62,4.52758621 9.14333333,3.85517241 8.40666667,3.45172414 C7.71333333,3.04827586 6.89,2.9137931 6.11,3.13793103 C5.33,3.36206897 4.68,3.85517241 4.24666667,4.61724138 L3.33666667,6.32068966 Z" id="Shape" fill="#FED008" fill-rule="nonzero"></path>
                        </g>
                        <path d="M28.3410953,12 C28.116215,12 27.8913348,11.9573444 27.6664545,11.8293775 C27.0367898,11.4881325 26.8119095,10.6776756 27.1717179,10.0804968 L28.8358319,7.30788108 C29.2855924,6.5400798 29.3755445,5.60165601 29.0607122,4.74854348 C28.7908558,4.06605345 29.1506643,3.3409078 29.8702811,3.08497404 C30.5898979,2.82904028 31.3544908,3.1702853 31.6243472,3.85277532 C32.2540119,5.43103351 32.0741077,7.13725857 31.2195627,8.58754987 L29.5554487,11.3601656 C29.2855924,11.7867219 28.8358319,12 28.3410953,12 Z" id="Shape" fill="#F5A623" fill-rule="nonzero"></path>
                        <circle id="Oval" fill="#444B54" fill-rule="nonzero" cx="36.5" cy="47.5" r="1.5"></circle>
                    </g>
                </g>
            </g>
        </g>
    </g>
</svg>