<?xml version="1.0" encoding="UTF-8"?>
<svg width="60px" height="60px" viewBox="0 0 60 60" version="1.1" xmlns="http://www.w3.org/2000/svg" xmlns:xlink="http://www.w3.org/1999/xlink">
    <!-- Generator: Sketch 55.2 (78181) - https://sketchapp.com -->
    <title>icon benefits employer/What recruitment fee?</title>
    <desc>Created with Sketch.</desc>
    <defs>
        <rect id="path-1" x="0" y="0" width="60" height="60"></rect>
    </defs>
    <g id="icon-benefits-employer/What-recruitment-fee?" stroke="none" stroke-width="1" fill="none" fill-rule="evenodd">
        <mask id="mask-2" fill="white">
            <use xlink:href="#path-1"></use>
        </mask>
        <g id="Mask" fill-rule="nonzero"></g>
        <g id="Group-23" mask="url(#mask-2)">
            <g transform="translate(4.000000, 9.000000)" id="School-27">
                <g>
                    <path d="M48.9130435,35.6774194 L48.9130435,5.82078853 C48.9130435,3.47491039 46.976087,1.55555556 44.6086957,1.55555556 L10.173913,1.55555556 C7.80652174,1.55555556 5.86956522,3.47491039 5.86956522,5.82078853 L5.86956522,35.6774194 L1.56521739,35.6774194 L1.56521739,36.9569892 C1.56521739,39.3028674 3.50217391,41.2222222 5.86956522,41.2222222 L48.9130435,41.2222222 C51.2804348,41.2222222 53.2173913,39.3028674 53.2173913,36.9569892 L53.2173913,35.6774194 L48.9130435,35.6774194 Z" id="Shape" fill="#FFFFFF" fill-rule="nonzero"></path>
                    <path d="M30.8227425,36.5555556 L22.3946488,36.5555556 C21.6782609,36.5555556 21.1304348,36.05 21.1304348,35.3888889 C21.1304348,34.7277778 21.6782609,34.2222222 22.3946488,34.2222222 L30.8227425,34.2222222 C31.5391304,34.2222222 32.0869565,34.7277778 32.0869565,35.3888889 C32.0869565,36.05 31.5391304,36.5555556 30.8227425,36.5555556 Z" id="Shape" fill="#FED008" fill-rule="nonzero"></path>
                    <path d="M48.4285714,42 L5.57142857,42 C2.48571429,42 0,39.625731 0,36.6783626 L0,35.4502924 C0,34.754386 0.557142857,34.2222222 1.28571429,34.2222222 L16.2857143,34.2222222 C17.0142857,34.2222222 17.5714286,34.754386 17.5714286,35.4502924 C17.5714286,36.1461988 17.0142857,36.6783626 16.2857143,36.6783626 L2.57142857,36.6783626 C2.57142857,38.2748538 3.9,39.5438596 5.57142857,39.5438596 L48.4285714,39.5438596 C50.1,39.5438596 51.4285714,38.2748538 51.4285714,36.6783626 L37.7142857,36.6783626 C36.9857143,36.6783626 36.4285714,36.1461988 36.4285714,35.4502924 C36.4285714,34.754386 36.9857143,34.2222222 37.7142857,34.2222222 L52.7142857,34.2222222 C53.4428571,34.2222222 54,34.754386 54,35.4502924 L54,36.6783626 C54,39.625731 51.5142857,42 48.4285714,42 Z" id="Shape" fill="#444B54" fill-rule="nonzero"></path>
                    <path d="M48.0196883,31.8888889 C47.2917145,31.8888889 46.7350287,31.3361481 46.7350287,30.6133333 L46.7350287,5.52740741 C46.7350287,3.86918519 45.4075472,2.55111111 43.7374897,2.55111111 L9.47990156,2.55111111 C7.80984413,2.55111111 6.48236259,3.86918519 6.48236259,5.52740741 L6.48236259,30.6133333 C6.48236259,31.3361481 5.92567678,31.8888889 5.19770304,31.8888889 C4.46972929,31.8888889 3.91304348,31.3361481 3.91304348,30.6133333 L3.91304348,5.52740741 C3.91304348,2.46607407 6.39671862,0 9.47990156,0 L43.7374897,0 C46.8206727,0 49.3043478,2.46607407 49.3043478,5.52740741 L49.3043478,30.6133333 C49.3043478,31.3361481 48.747662,31.8888889 48.0196883,31.8888889 Z" id="Shape" fill="#444B54" fill-rule="nonzero"></path>
                </g>
            </g>
        </g>
        <g id="School-09" mask="url(#mask-2)" fill-rule="nonzero">
            <g transform="translate(15.000000, 4.000000)" id="Shape">
                <path d="M30,7 L35,7 L35,4 C35,2.35 33.875,1 32.5,1 L32.5,1 C31.125,1 30,2.35 30,4 L30,7 Z" fill="#D3D8DD"></path>
                <path d="M34,1 L7.19148936,1 C5.43617021,1 4,2.43181818 4,4.18181818 L4,36 L27.6170213,36 C29.3723404,36 30.8085106,34.5681818 30.8085106,32.8181818 L30.8085106,4.18181818 C30.8085106,2.43181818 32.2446809,1 34,1 L34,1 Z" fill="#FFFFFF"></path>
                <path d="M22.1,16 L8.9,16 C8.39,16 8,15.7833333 8,15.5 C8,15.2166667 8.39,15 8.9,15 L22.1,15 C22.61,15 23,15.2166667 23,15.5 C23,15.7833333 22.61,16 22.1,16 Z" fill="#D3D8DD"></path>
                <path d="M19.2,7 L12.8,7 C12.3466667,7 12,6.78333333 12,6.5 C12,6.21666667 12.3466667,6 12.8,6 L19.2,6 C19.6533333,6 20,6.21666667 20,6.5 C20,6.78333333 19.6533333,7 19.2,7 Z" fill="#D3D8DD"></path>
                <path d="M23.9047619,32 L23.9047619,29 L1,29 L1,32 C1,33.65 2.39285714,35 4.0952381,35 L27,35 C25.297619,35 23.9047619,33.65 23.9047619,32 Z" fill="#FFFFFF"></path>
                <path d="M32.9916667,0 L7.09166667,0 C4.87166667,0 3.08333333,1.8 3.08333333,4.03448276 L3.08333333,24.8275862 C3.08333333,25.3551724 3.48416667,25.7586207 4.00833333,25.7586207 C4.5325,25.7586207 4.93333333,25.3551724 4.93333333,24.8275862 L4.93333333,4.03448276 C4.93333333,2.82413793 5.88916667,1.86206897 7.09166667,1.86206897 L29.6,1.86206897 C29.1991667,2.48275862 28.9833333,3.22758621 28.9833333,4.03448276 L28.9833333,31.9655172 C28.9833333,33.1758621 28.0275,34.137931 26.825,34.137931 C25.6225,34.137931 24.6666667,33.1758621 24.6666667,31.9655172 L24.6666667,28.862069 C24.6666667,28.3344828 24.2658333,27.9310345 23.7416667,27.9310345 L0.925,27.9310345 C0.400833333,27.9310345 0,28.3344828 0,28.862069 L0,31.9655172 C0,34.2 1.78833333,36 4.00833333,36 L26.825,36 C29.045,36 30.8333333,34.2 30.8333333,31.9655172 L30.8333333,4.03448276 C30.8333333,2.82413793 31.7891667,1.86206897 32.9916667,1.86206897 C34.1941667,1.86206897 35.15,2.82413793 35.15,4.03448276 L35.15,6.20689655 L32.9916667,6.20689655 C32.4675,6.20689655 32.0666667,6.61034483 32.0666667,7.13793103 C32.0666667,7.66551724 32.4675,8.06896552 32.9916667,8.06896552 L36.075,8.06896552 C36.5991667,8.06896552 37,7.66551724 37,7.13793103 L37,4.03448276 C37,1.8 35.2116667,0 32.9916667,0 Z M4.00833333,34.137931 C2.80583333,34.137931 1.85,33.1758621 1.85,31.9655172 L1.85,29.7931034 L22.8166667,29.7931034 L22.8166667,31.9655172 C22.8166667,32.7724138 23.0633333,33.5172414 23.4333333,34.137931 L4.00833333,34.137931 Z" fill="#FED008"></path>
                <path d="M18.0571429,20 L8.94285714,20 C8.40857143,20 8,19.7833333 8,19.5 C8,19.2166667 8.40857143,19 8.94285714,19 L18.0571429,19 C18.5914286,19 19,19.2166667 19,19.5 C19,19.7833333 18.5914286,20 18.0571429,20 Z" fill="#D3D8DD"></path>
                <path d="M22.516129,20 L22.483871,20 C22.2096774,20 22,19.7833333 22,19.5 C22,19.2166667 22.2096774,19 22.483871,19 L22.516129,19 C22.7903226,19 23,19.2166667 23,19.5 C23,19.7833333 22.7903226,20 22.516129,20 Z" fill="#D3D8DD"></path>
            </g>
        </g>
        <g id="COINS@3x" mask="url(#mask-2)">
            <g transform="translate(39.000000, 34.000000)" id="Group-11">
                <g>
                    <circle id="Oval-11-Copy-3" fill="#FFE796" fill-rule="nonzero" cx="4.5" cy="4.5" r="4.5"></circle>
                    <path d="M4.25543479,7.26972038 L4.89130435,7.26972038 L4.89130435,6.65664087 C5.66168479,6.57613546 6.1875,6.13025945 6.1875,5.43667454 L6.1875,5.42428909 C6.1875,4.7307042 5.79008152,4.35294813 4.86073369,4.09904651 L4.86073369,3.15775271 C5.11141304,3.22587265 5.37432065,3.35591981 5.61888586,3.52312334 L6.02853262,2.79857479 C5.69225545,2.56325135 5.32540762,2.40224057 4.89130435,2.34650607 L4.89130435,1.96875 L4.25543479,1.96875 L4.25543479,2.3279279 C3.48505435,2.40843329 2.97146738,2.86050202 2.97146738,3.54170149 L2.97146738,3.55408694 C2.97146738,4.2910209 3.40557065,4.6254279 4.28600545,4.86694407 L4.28600545,5.85158695 C3.92527173,5.77727427 3.61956521,5.60387806 3.28940217,5.34997645 L2.8125,6.05594678 C3.21603262,6.36558292 3.72961955,6.57613546 4.25543479,6.64425543 L4.25543479,7.26972038 Z M5.29483696,5.47383087 L5.29483696,5.48621632 C5.29483696,5.70915434 5.14809783,5.8392015 4.86073369,5.88255057 L4.86073369,5.01556942 C5.19089673,5.13942387 5.29483696,5.26947104 5.29483696,5.47383087 Z M3.86413045,3.49835245 L3.86413045,3.485967 C3.86413045,3.28779987 3.98641304,3.13917453 4.28600545,3.10201819 L4.28600545,3.94422845 C3.94972827,3.820374 3.86413045,3.69651955 3.86413045,3.49835245 Z" id="$" fill="#FFF1BE" fill-rule="nonzero"></path>
                </g>
            </g>
        </g>
    </g>
</svg>