
<svg width="13px" height="11px" viewBox="0 0 13 11" version="1.1" xmlns="http://www.w3.org/2000/svg" xmlns:xlink="http://www.w3.org/1999/xlink">
    <g id="ZooTown" stroke="none" stroke-width="1" fill="none" fill-rule="evenodd">
        <g id="Zoo-Town-Students-" transform="translate(-861.000000, -1108.000000)">
            <rect fill="#FFFFFF" x="0" y="0" width="1440" height="5161"></rect>
            <g id="Reviews" transform="translate(272.000000, 757.000000)" fill="#000000">
                <g id="icon/quotes" transform="translate(589.000000, 351.000000)">
                    <g id="quote-left">
                        <path d="M4.49989055,5.00004975 L2.74989967,5.00004975 C2.54155569,5.00004975 2.36443322,4.9271526 2.21858696,4.78130356 C2.0728228,4.63545453 1.99984494,4.4583834 1.99984494,4.24998072 L1.99984494,4.00009453 C1.99984494,3.4479752 2.19519136,2.97666117 2.58585684,2.58598824 C2.97649495,2.19545214 3.44788208,2.00010199 3.99993615,2.00010199 L4.49989055,2.00010199 C4.63528403,2.00010199 4.75242621,1.95060088 4.85142654,1.85168076 C4.95037214,1.75270591 4.99984494,1.63556149 4.99984494,1.50013806 L4.99984494,0.500046021 C4.99984494,0.364649955 4.95034478,0.247396086 4.85142654,0.148421233 C4.75245357,0.0495831996 4.63531139,0 4.49989055,0 L3.99993615,0 C3.4582254,0 2.94141523,0.105569528 2.44917728,0.316407581 C1.95699405,0.527382454 1.53127622,0.812567943 1.17185961,1.17199141 C0.812470356,1.5312507 0.527372396,1.95700401 0.31642891,2.44925135 C0.105485424,2.94144396 0,3.45840081 0,4.00006717 L0,9.49994403 C0,9.91683147 0.145764165,10.2708095 0.437429312,10.5625897 C0.729121821,10.8542057 1.08336678,11 1.5,11 L4.50008209,11 C4.91668795,11 5.27082345,10.8542057 5.56254333,10.5625897 C5.85415375,10.2708095 6,9.91683147 6,9.49994403 L6,6.50007836 C6,6.08327301 5.85415375,5.72929493 5.56235178,5.43748741 C5.27076873,5.14589879 4.91649641,5.00004975 4.49989055,5.00004975 Z" id="Shape" fill-rule="nonzero"></path>
                        <path d="M12.5627677,5.43748741 C12.27117,5.14589879 11.9169893,5.00004975 11.5002531,5.00004975 L9.75020181,5.00004975 C9.54195685,5.00004975 9.36466129,4.9271526 9.219054,4.78130356 C9.0731457,4.63545453 9.00030101,4.4583834 9.00030101,4.24998072 L9.00030101,4.00009453 C9.00030101,3.4479752 9.19565723,2.97666117 9.58615075,2.58598824 C9.97667164,2.19545214 10.4480551,2.00010199 11.0004105,2.00010199 L11.5002805,2.00010199 C11.6357081,2.00010199 11.7529383,1.95060088 11.8518615,1.85168076 C11.95073,1.75270591 12.0003968,1.63556149 12.0003968,1.50013806 L12.0003968,0.500046021 C12.0003968,0.364649955 11.9507573,0.247396086 11.8518615,0.148421233 C11.7529656,0.0495831996 11.6357355,0 11.5002805,0 L11.0004105,0 C10.4583715,0 9.94164489,0.105569528 9.44924542,0.316407581 C8.9571196,0.527382454 8.53151723,0.812567943 8.17208259,1.17199141 C7.81264794,1.5312507 7.52739885,1.95700401 7.31652688,2.44925135 C7.10562754,2.94144396 7,3.45840081 7,4.00006717 L7,9.49994403 C7,9.91683147 7.1459083,10.2708095 7.43750599,10.5625897 C7.72913104,10.8542057 8.08331167,11 8.50002052,11 L11.5000889,11 C11.9168252,11 12.2709784,10.8542057 12.5625761,10.5625897 C12.8543927,10.2708095 13,9.91683147 13,9.49994403 L13,6.50007836 C13,6.08324564 12.8543927,5.72929493 12.5627677,5.43748741 Z" id="Shape" fill-rule="nonzero"></path>
                    </g>
                </g>
            </g>
        </g>
    </g>
</svg>