
<svg width="20px" height="16px" viewBox="0 0 20 16" version="1.1" xmlns="http://www.w3.org/2000/svg" xmlns:xlink="http://www.w3.org/1999/xlink">
    <g id="ZooTown" stroke="none" stroke-width="1" fill="none" fill-rule="evenodd" opacity="0.193973214">
        <g id="Zoo-Town-Students-" transform="translate(-711.000000, -5070.000000)" fill="#000000">
            <g id="Group-11" transform="translate(175.000000, 4837.000000)">
                <g id="Group-10" transform="translate(487.000000, 232.000000)">
                    <path d="M66.777,4.906 C66.784,5.076 66.788,5.247 66.788,5.419 C66.788,10.651 62.806,16.683 55.524,16.683 C53.288,16.683 51.207,16.028 49.454,14.905 C49.764,14.941 50.079,14.96 50.399,14.96 C52.254,14.96 53.961,14.327 55.316,13.265 C53.583,13.233 52.121,12.088 51.618,10.515 C51.859,10.562 52.107,10.587 52.362,10.587 C52.723,10.587 53.073,10.538 53.405,10.448 C51.594,10.084 50.23,8.484 50.23,6.566 L50.23,6.516 C50.764,6.812 51.374,6.99 52.023,7.011 C50.961,6.301 50.262,5.089 50.262,3.716 C50.262,2.99 50.457,2.31 50.798,1.725 C52.751,4.12 55.668,5.697 58.958,5.862 C58.891,5.572 58.856,5.27 58.856,4.959 C58.856,2.773 60.628,1 62.815,1 C63.954,1 64.983,1.481 65.705,2.251 C66.607,2.073 67.454,1.744 68.219,1.29 C67.924,2.214 67.296,2.99 66.478,3.48 C67.279,3.385 68.042,3.172 68.752,2.857 C68.221,3.651 67.55,4.348 66.777,4.906" id="Twitter"></path>
                </g>
            </g>
        </g>
    </g>
</svg>