<?xml version="1.0" encoding="utf-8"?>
<!-- Generator: Adobe Illustrator 22.0.0, SVG Export Plug-In . SVG Version: 6.00 Build 0)  -->
<svg version="1.1" id="Layer_1" xmlns="http://www.w3.org/2000/svg" xmlns:xlink="http://www.w3.org/1999/xlink" x="0px" y="0px"
	 viewBox="0 0 30 30" style="enable-background:new 0 0 30 30;" xml:space="preserve">
<style type="text/css">
	.st0{fill:none;stroke:#464545;stroke-width:2.8;stroke-linecap:round;stroke-linejoin:round;stroke-miterlimit:10;}
	.st1{fill:#FED008;}
</style>
<g transform="translate(1161 26)">
	<rect x="-1161" y="-26" width="30" height="29"/>
	<path class="st0" d="M-1155.6-8.7l1-1.7c0.2-0.4,0.7-0.5,1-0.3c0.1,0.1,0.3,0.2,0.3,0.3l1.4,3c0.2,0.4,0.6,0.5,1,0.4
		c0.2-0.1,0.4-0.3,0.4-0.6l1.4-7.7c0.1-0.4,0.5-0.7,0.9-0.6c0.3,0.1,0.5,0.3,0.6,0.5l3.3,10.8c0.1,0.4,0.5,0.6,0.9,0.5
		c0.3-0.1,0.5-0.4,0.5-0.7l1.4-15.3c0-0.4,0.4-0.7,0.8-0.7c0.3,0,0.5,0.2,0.6,0.4l1.8,3.3"/>
	<circle class="st1" cx="-1136" cy="-19.5" r="2.7"/>
</g>
</svg>
